<svg clip-rule="evenodd" fill-rule="evenodd" stroke-linejoin="round" stroke-miterlimit="2" viewBox="0 0 2481 3508" xmlns="http://www.w3.org/2000/svg"><g fill="#3d3c31" fill-rule="nonzero" transform="matrix(4.16667 0 0 4.16667 893.6367 -850.141)"><path d="m44.371 324.027h-30.293c-.829 0-1.5-.672-1.5-1.5 0-.829.671-1.5 1.5-1.5h30.293c.829 0 1.5.671 1.5 1.5 0 .828-.671 1.5-1.5 1.5z"/><path d="m44.368 304.925h-30.293c-.829 0-1.5-.672-1.5-1.5s.671-1.5 1.5-1.5h30.293c.829 0 1.5.672 1.5 1.5s-.671 1.5-1.5 1.5z"/><path d="m3.625 312.976 3.804 3.804 3.803-3.804-3.803-3.806zm3.804 7.426c-.398 0-.78-.159-1.061-.44l-5.925-5.926c-.585-.586-.585-1.535 0-2.121l5.925-5.927c.281-.282.663-.44 1.061-.44s.779.158 1.061.44l5.924 5.927c.586.586.586 1.535 0 2.121l-5.925 5.926c-.281.281-.662.44-1.06.44z"/><path d="m104.581 395.425c-.829 0-1.5-.672-1.5-1.5v-30.292c0-.828.671-1.5 1.5-1.5s1.5.672 1.5 1.5v30.292c0 .828-.671 1.5-1.5 1.5z"/><path d="m85.478 395.425c-.829 0-1.5-.672-1.5-1.5v-30.292c0-.828.671-1.5 1.5-1.5s1.5.672 1.5 1.5v30.292c0 .828-.671 1.5-1.5 1.5z"/><path d="m91.223 400.574 3.804 3.805 3.806-3.805-3.806-3.804zm3.804 7.426c-.383 0-.767-.146-1.06-.439l-5.926-5.926c-.282-.281-.44-.663-.44-1.061 0-.397.158-.779.44-1.06l5.926-5.926c.586-.586 1.535-.586 2.121 0l5.928 5.926c.281.281.439.663.439 1.06 0 .398-.158.78-.439 1.061l-5.928 5.926c-.293.293-.677.439-1.061.439z"/><path d="m104.755 351.241c-.828 0-1.5-.671-1.5-1.5l-.001-27.389c0-.828.671-1.5 1.5-1.5.828 0 1.5.672 1.5 1.5l.001 27.389c0 .829-.671 1.5-1.5 1.5z"/><path d="m85.652 351.241c-.828 0-1.5-.671-1.5-1.5v-27.389c0-.828.672-1.5 1.5-1.5.829 0 1.5.672 1.5 1.5v27.389c0 .829-.671 1.5-1.5 1.5z"/><path d="m89.423 356.392 5.782 5.778 5.778-5.781-5.777-5.778zm5.783 9.399c-.384 0-.768-.146-1.061-.439l-7.904-7.9c-.281-.281-.439-.662-.439-1.06s.158-.779.439-1.061l7.904-7.902c.586-.586 1.536-.586 2.121 0l7.899 7.899c.586.586.586 1.535.001 2.121l-7.899 7.903c-.293.293-.678.439-1.061.439z"/><path d="m87.774 312.797 7.432 7.433 7.427-7.431-7.428-7.427zm7.432 11.054c-.398 0-.78-.158-1.061-.44l-9.553-9.553c-.282-.282-.44-.663-.44-1.061s.159-.78.44-1.061l9.554-9.546c.585-.584 1.534-.585 2.12.001l9.548 9.547c.586.586.586 1.536.001 2.122l-9.548 9.551c-.282.282-.663.44-1.061.44z"/><path d="m94.361 312.798.843.843.841-.842-.842-.843zm.844 4.464c-.384 0-.768-.147-1.061-.44l-2.966-2.964c-.281-.282-.44-.663-.44-1.061s.159-.78.44-1.061l2.967-2.962c.586-.586 1.535-.586 2.121.002l2.961 2.964c.586.585.585 1.535 0 2.121l-2.962 2.961c-.292.293-.677.44-1.06.44z"/><path d="m85.652 323.852h-27.387c-.829 0-1.5-.672-1.5-1.5s.671-1.5 1.5-1.5h27.387c.829 0 1.5.672 1.5 1.5s-.671 1.5-1.5 1.5z"/><path d="m85.652 304.751-27.388-.005c-.828 0-1.499-.672-1.499-1.5s.672-1.5 1.5-1.5l27.388.005c.828 0 1.499.672 1.499 1.5s-.671 1.5-1.5 1.5z"/><path d="m45.833 312.799 5.782 5.781 5.779-5.781-5.779-5.78zm5.782 9.402c-.397 0-.779-.158-1.06-.439l-7.904-7.902c-.281-.282-.44-.664-.44-1.061s.159-.779.44-1.061l7.904-7.901c.586-.586 1.536-.586 2.121 0l7.9 7.901c.586.586.586 1.536 0 2.122l-7.9 7.902c-.281.281-.663.439-1.061.439z"/><path d="m80.667 310.35h-.001l-2.713-.003c-.828-.001-1.499-.673-1.498-1.502.001-.827.672-1.498 1.5-1.498h.001l2.712.003c.829.001 1.5.673 1.499 1.502-.001.827-.672 1.498-1.5 1.498z"/><path d="m68.862 310.347h-2.714c-.828 0-1.5-.672-1.5-1.5s.672-1.5 1.5-1.5h2.714c.829 0 1.5.672 1.5 1.5s-.671 1.5-1.5 1.5z"/><path d="m80.67 318.251-2.714-.001c-.829 0-1.5-.672-1.5-1.501.001-.828.672-1.499 1.5-1.499l2.714.001c.829 0 1.5.672 1.5 1.501-.001.828-.672 1.499-1.5 1.499z"/><path d="m68.862 318.251-2.713-.001c-.828 0-1.5-.672-1.499-1.501 0-.828.672-1.499 1.5-1.499l2.713.001c.828 0 1.5.672 1.499 1.501 0 .828-.672 1.499-1.5 1.499z"/><path d="m91.253 343.355c-.829 0-1.5-.672-1.5-1.5v-2.714c0-.828.671-1.5 1.5-1.5s1.5.672 1.5 1.5v2.714c0 .828-.671 1.5-1.5 1.5z"/><path d="m91.253 331.548c-.829 0-1.5-.672-1.5-1.5v-2.715c0-.828.671-1.5 1.5-1.5s1.5.672 1.5 1.5v2.715c0 .828-.671 1.5-1.5 1.5z"/><path d="m99.157 343.358c-.828 0-1.5-.672-1.5-1.5v-2.717c0-.828.672-1.5 1.5-1.5.829 0 1.501.672 1.501 1.5v2.717c0 .828-.672 1.5-1.501 1.5z"/><path d="m99.157 331.548c-.828 0-1.5-.672-1.5-1.5v-2.715c0-.828.672-1.5 1.5-1.5.829 0 1.501.672 1.501 1.5v2.715c0 .828-.672 1.5-1.501 1.5z"/><path d="m34.067 314.477c-.828 0-1.499-.671-1.5-1.499 0-.829.671-1.501 1.5-1.501l2.716-.001c.828 0 1.499.671 1.5 1.499 0 .829-.671 1.501-1.5 1.501z"/><path d="m22.261 314.477c-.828 0-1.499-.671-1.5-1.499 0-.829.671-1.501 1.5-1.501l2.714-.001c.828 0 1.5.671 1.5 1.499.001.829-.671 1.501-1.499 1.501z"/><path d="m95.027 387.243c-.828 0-1.499-.671-1.5-1.499l-.001-2.714c-.001-.828.671-1.5 1.499-1.5h.001c.828 0 1.499.67 1.5 1.499l.001 2.713c.001.829-.671 1.501-1.499 1.501z"/><path d="m95.027 375.437c-.828 0-1.5-.672-1.5-1.5v-2.715c0-.828.672-1.5 1.5-1.5.829 0 1.5.672 1.5 1.5v2.715c0 .828-.671 1.5-1.5 1.5z"/><path d="m68.757 333.465 5.782 5.781 5.779-5.781-5.779-5.781zm5.782 9.402c-.397 0-.779-.158-1.06-.439l-7.904-7.902c-.282-.282-.44-.663-.44-1.061 0-.397.158-.779.44-1.06l7.904-7.903c.281-.281.662-.439 1.06-.439s.78.158 1.061.439l7.9 7.903c.585.585.585 1.535 0 2.121l-7.9 7.902c-.281.281-.663.439-1.061.439z"/><path d="m74.539 336.943c-.398 0-.78-.159-1.061-.441l-1.975-1.977c-.585-.586-.585-1.536.001-2.12l1.975-1.974c.585-.586 1.534-.585 2.12-.001l1.977 1.974c.281.281.44.663.44 1.06 0 .399-.158.78-.439 1.062l-1.977 1.977c-.281.281-.663.44-1.061.44z"/><path d="m55.574 335.096c-.828 0-1.5-.671-1.5-1.499-.001-.829.671-1.501 1.499-1.501l1.986-.001c.828 0 1.499.671 1.5 1.499 0 .829-.671 1.501-1.499 1.501z"/><path d="m48.935 335.096h-1.981c-.828 0-1.5-.672-1.5-1.5s.672-1.5 1.5-1.5h1.981c.828 0 1.5.672 1.5 1.5s-.672 1.5-1.5 1.5z"/><path d="m74.41 362.55c-.829 0-1.5-.672-1.5-1.5v-1.981c0-.829.671-1.5 1.5-1.5.828 0 1.5.671 1.5 1.5v1.981c0 .828-.672 1.5-1.5 1.5z"/><path d="m74.41 353.929c-.829 0-1.5-.672-1.5-1.5v-1.982c0-.828.671-1.5 1.5-1.5.828 0 1.5.672 1.5 1.5v1.982c0 .828-.672 1.5-1.5 1.5z"/></g></svg>