<svg fill="none" height="800" viewBox="0 0 24 24" width="800" xmlns="http://www.w3.org/2000/svg"><path d="m8 22h8" stroke="#1c274c" stroke-linecap="round" stroke-linejoin="round" stroke-width="1.5"/><path d="m5 19h14" stroke="#1c274c" stroke-linecap="round" stroke-linejoin="round" stroke-width="1.5"/><path d="m2 16h20" stroke="#1c274c" stroke-linecap="round" stroke-linejoin="round" stroke-width="1.5"/><path d="m12 6c-3.31371 0-6 2.68629-6 6 0 1.5217.56645 2.911 1.5 3.9687h9c.9335-1.0577 1.5-2.447 1.5-3.9687 0-3.31371-2.6863-6-6-6z" stroke="#1c274c" stroke-width="1.5"/><path d="m12 10 .5303-.53033c-.2929-.29289-.7677-.29289-1.0606 0zm1.4697 2.5303c.2929.2929.7677.2929 1.0606 0s.2929-.7677 0-1.0606zm-4.00003-1.0606c-.29289.2929-.29289.7677 0 1.0606s.76773.2929 1.06063 0zm3.28033 4.5303v-6h-1.5v6zm-1.2803-5.4697 2 2 1.0606-1.0606-2-2.00003zm0-1.06063-2.00003 2.00003 1.06063 1.0606 2-2z" fill="#1c274c"/><g stroke="#1c274c" stroke-width="1.5"><path d="m12 2v1" stroke-linecap="round"/><path d="m22 12h-1" stroke-linecap="round"/><path d="m3 12h-1" stroke-linecap="round"/><path d="m19.0708 4.92969-.3928.39283" stroke-linecap="round"/><path d="m5.32178 5.32227-.39284-.39284" stroke-linecap="round"/></g></svg>